<svg data-v-fde0c5aa="" xmlns="http://www.w3.org/2000/svg" viewBox="0 0 300 300" class="iconLeftSlogan"><!----><defs data-v-fde0c5aa=""><!----></defs><rect data-v-fde0c5aa="" fill="transparent" x="0" y="0" width="300px" height="300px" class="logo-background-square"></rect><defs data-v-fde0c5aa=""><!----></defs><g data-v-fde0c5aa="" id="778515a6-0c6f-432f-a607-fc479d02ed48" fill="#0A1931" transform="matrix(3.2856676895951415,0,0,3.2856676895951415,120.75340230245962,111.20112313938255)"><path d="M6.13 6.50C6.13 7.34 5.57 7.88 4.98 8.12C4.59 8.27 4.20 8.32 3.70 8.32C2.87 8.32 2.77 8.32 2.77 8.06L2.77 4.77C2.77 4.76 2.76 4.75 2.76 4.73C2.76 4.63 2.77 4.55 2.84 4.51C2.97 4.41 3.50 4.37 3.68 4.37C5.10 4.37 6.13 5.38 6.13 6.50ZM3.96 3.82C3.04 3.82 2.11 3.99 0.87 3.99L0.38 3.99C0.25 3.99 0.20 4.05 0.20 4.26C0.20 4.40 0.27 4.45 0.41 4.48C1.37 4.65 1.58 4.63 1.58 5.08L1.58 12.32C1.58 12.60 1.54 12.77 1.20 12.81C0.56 12.87 0.34 12.84 0.34 13.15C0.34 13.31 0.38 13.52 0.59 13.52C0.64 13.52 1.41 13.44 2.38 13.44C3.35 13.44 4.13 13.52 4.19 13.52C4.37 13.52 4.47 13.40 4.47 13.22C4.47 12.78 4.13 12.84 3.19 12.75C2.84 12.71 2.83 12.47 2.83 12.31L2.83 12.26L2.83 9.03C2.83 8.86 2.90 8.82 3.02 8.82L4.05 8.82C4.14 8.82 4.21 8.82 4.28 8.88C4.37 8.93 4.33 8.88 5.57 10.61L6.97 12.60C7.14 12.82 7.71 13.62 8.46 13.62C9.27 13.62 9.67 12.81 9.67 12.60C9.67 12.52 9.62 12.45 9.53 12.45C9.35 12.45 9.30 12.75 8.93 12.75C8.64 12.75 8.37 12.53 8.18 12.31C7.64 11.68 7.31 10.72 5.59 8.71C5.57 8.69 5.56 8.68 5.56 8.65C5.56 8.61 5.60 8.60 5.63 8.58C6.01 8.44 7.22 7.66 7.22 6.26C7.22 5.28 6.48 3.82 3.96 3.82ZM10.05 10.56C10.05 12.95 11.61 13.71 12.75 13.71C13.75 13.71 14.66 13.20 15.23 12.46C15.30 12.38 15.33 12.29 15.33 12.24C15.33 12.11 15.23 12.03 15.11 12.03C14.97 12.03 14.85 12.15 14.78 12.22C14.35 12.64 13.73 12.91 13.12 12.91C11.35 12.91 11.05 11.05 11.05 10.88C11.05 10.75 11.13 10.77 14.03 9.77C14.43 9.63 15.16 9.49 15.16 9.07L15.16 9.06C15.16 8.93 15.11 8.82 15.05 8.75C14.53 8.04 13.61 7.41 12.64 7.41C11.24 7.41 10.05 8.60 10.05 10.56ZM13.80 9.10C13.80 9.16 13.76 9.23 13.68 9.27C13.65 9.28 11.10 10.28 11.06 10.28C11.03 10.28 10.99 10.26 10.99 10.18C10.99 8.93 11.52 8.18 12.33 8.18C13.12 8.18 13.80 8.93 13.80 9.10ZM17.46 8.15C17.42 8.15 17.40 8.11 17.40 8.06L17.40 7.53C17.40 7.46 17.39 7.36 17.28 7.36C17.19 7.36 17.16 7.41 17.01 7.49C15.88 8.22 15.88 8.18 15.88 8.30C15.88 8.39 15.96 8.44 16.00 8.47C16.52 8.86 16.56 8.85 16.56 9.13L16.56 12.60C16.51 13.16 15.78 12.78 15.78 13.22C15.78 13.36 15.81 13.50 15.97 13.50C16.07 13.50 16.38 13.44 17.00 13.44C17.64 13.44 18.14 13.52 18.19 13.52C18.31 13.52 18.37 13.43 18.37 13.30C18.37 13.16 18.37 13.03 18.17 13.01C17.56 12.91 17.43 12.94 17.43 12.53L17.43 9.16C17.43 8.95 17.46 8.86 17.49 8.79C17.57 8.64 17.93 8.25 18.55 8.25C18.94 8.25 19.29 8.40 19.53 8.58C19.92 8.88 19.98 9.34 19.98 9.80L19.98 12.39C19.98 12.73 19.92 12.87 19.61 12.92C19.03 13.02 18.86 12.99 18.86 13.22C18.86 13.40 18.89 13.52 19.05 13.52C19.08 13.52 19.66 13.44 20.36 13.44C21.06 13.44 21.62 13.52 21.66 13.52C21.81 13.52 21.84 13.36 21.84 13.23C21.84 13.08 21.76 12.99 21.57 12.96C21 12.89 20.89 12.92 20.89 12.66L20.89 12.64C20.89 12.60 20.90 12.57 20.90 12.53L20.90 9.83C20.90 9.23 20.82 8.90 20.82 8.89C20.82 8.68 21.48 8.25 22.09 8.25C22.53 8.25 22.82 8.44 22.96 8.55C23.49 9.02 23.53 9.87 23.53 10.60L23.53 12.54C23.53 12.74 23.53 12.88 23.25 12.92C22.69 13.03 22.60 13.01 22.60 13.29C22.60 13.47 22.74 13.52 22.82 13.52C22.93 13.52 23.30 13.44 24.01 13.44C24.71 13.44 25.07 13.52 25.19 13.52C25.37 13.52 25.40 13.37 25.40 13.24C25.40 13.15 25.38 13.02 25.20 12.99C24.67 12.88 24.53 12.92 24.53 12.47L24.53 10.70C24.53 10.14 24.53 9.59 24.37 9.06C24.05 7.91 23.20 7.53 22.48 7.53C22.22 7.53 21.73 7.59 21.13 7.94C20.59 8.25 20.65 8.32 20.54 8.32C20.51 8.32 20.50 8.32 20.48 8.30C20.45 8.29 19.88 7.53 18.97 7.53C18.13 7.53 17.53 8.15 17.46 8.15ZM25.89 10.58C25.89 12.31 27.08 13.71 28.85 13.71C30.42 13.71 31.84 12.59 31.84 10.58C31.84 8.71 30.58 7.39 28.91 7.39C27.34 7.39 25.89 8.64 25.89 10.58ZM28.90 13.02C27.75 13.02 26.98 11.97 26.98 10.51C26.98 8.64 28.08 8.05 28.81 8.05C29.88 8.05 30.88 9.14 30.88 10.64C30.88 11.89 30.09 13.02 28.90 13.02ZM32.69 8.33L33.14 8.33C33.22 8.33 33.24 8.39 33.24 8.46C33.24 8.76 33.18 10.93 33.18 11.55C33.18 11.70 33.18 11.84 33.19 12.00C33.29 13.31 34.05 13.71 34.61 13.71C35.38 13.71 36.06 13.01 36.55 12.45C36.58 12.40 36.65 12.32 36.65 12.21C36.65 12.08 36.55 11.96 36.40 11.96C36.09 11.96 35.55 12.80 34.87 12.80C34.29 12.80 34.16 12.25 34.16 11.76C34.16 11.42 34.16 11.10 34.17 8.48C34.17 8.39 34.22 8.36 34.31 8.36L35.95 8.36C36.08 8.36 36.15 8.34 36.20 8.29C36.27 8.20 36.33 7.97 36.33 7.88C36.33 7.62 36.09 7.62 35.97 7.62C35.92 7.62 35.90 7.60 35.85 7.60L34.59 7.60C34.43 7.60 34.31 7.56 34.31 7.32C34.31 7.13 34.33 6.54 34.33 6.34C34.33 6.16 34.23 6.12 34.15 6.12C33.99 6.12 33.91 6.30 33.87 6.37C33.11 7.66 32.41 7.91 32.41 8.15C32.41 8.32 32.56 8.33 32.69 8.33ZM37.10 10.56C37.10 12.95 38.65 13.71 39.80 13.71C40.80 13.71 41.71 13.20 42.28 12.46C42.35 12.38 42.38 12.29 42.38 12.24C42.38 12.11 42.28 12.03 42.15 12.03C42.01 12.03 41.90 12.15 41.83 12.22C41.40 12.64 40.78 12.91 40.17 12.91C38.40 12.91 38.09 11.05 38.09 10.88C38.09 10.75 38.18 10.77 41.08 9.77C41.48 9.63 42.21 9.49 42.21 9.07L42.21 9.06C42.21 8.93 42.15 8.82 42.10 8.75C41.58 8.04 40.66 7.41 39.69 7.41C38.29 7.41 37.10 8.60 37.10 10.56ZM40.85 9.10C40.85 9.16 40.81 9.23 40.73 9.27C40.70 9.28 38.15 10.28 38.11 10.28C38.08 10.28 38.04 10.26 38.04 10.18C38.04 8.93 38.57 8.18 39.38 8.18C40.17 8.18 40.85 8.93 40.85 9.10Z"></path></g><defs data-v-fde0c5aa=""><!----></defs><g data-v-fde0c5aa="" id="639f7325-563d-4db7-8c27-909ae7c2677f" stroke="none" fill="#185ADB" transform="matrix(1.0836065808575135,0,0,1.0836065808575135,20.629451422649492,94.8715270830633)"><path d="M35.189 70.812l1.978-1.993c3.06-3.06 6.38-4.611 9.924-4.611 5.01 0 8.237 3.133 8.63 3.517L58 70.188V30H23v51h21.753l-7.579-7.975-1.985-2.213zm17.61-17.963a4.328 4.328 0 1 1-8.657 0 4.328 4.328 0 0 1 8.656 0zM41.465 35.27a4.328 4.328 0 1 1 0 8.655 4.328 4.328 0 0 1 0-8.656zm-12.471 17.58a4.328 4.328 0 1 1 8.656.001 4.328 4.328 0 0 1-8.656 0z"></path><path d="M39.205 71.05L62.575 95H81V74.2s1-20.235-19-20.235V71.36l-3.114 3.165L54 69.845s-6.985-6.604-14.795 1.206zM40.802 21.66c4.887 0 9.461 1.366 13.36 3.737l2.205-4.19a30.337 30.337 0 0 0-15.565-4.28 30.353 30.353 0 0 0-17.637 5.633l2.46 4.055a25.653 25.653 0 0 1 15.177-4.955z"></path><path d="M40.802 11.483a35.74 35.74 0 0 1 18.1 4.905l2.204-4.19A40.442 40.442 0 0 0 40.802 6.75a40.47 40.47 0 0 0-22.926 7.091l2.46 4.055a35.763 35.763 0 0 1 20.466-6.413z"></path></g><defs data-v-fde0c5aa=""><!----></defs><g data-v-fde0c5aa="" id="8f0983a6-4cb0-40e5-be4c-007c188f8eda" fill="#185ADB" transform="matrix(3.127724481739458,0,0,3.127724481739458,120.2220004688104,156.95828705554757)"><path d="M0.87 3.64L0.38 3.64L0.38 3.08L3.89 3.08L3.88 3.64L3.14 3.64L3.14 3.64Q2.80 3.64 2.80 3.82L2.80 3.82L2.80 3.82Q2.80 3.98 2.99 4.48L2.99 4.48L5.60 10.94L8.54 4.18L8.54 4.18Q8.61 3.97 8.61 3.92L8.61 3.92L8.61 3.92Q8.61 3.79 8.51 3.74L8.51 3.74L8.51 3.74Q8.42 3.68 8.27 3.65L8.27 3.65L8.27 3.65Q8.19 3.64 7.92 3.64L7.92 3.64L7.48 3.64L7.45 3.08L10.29 3.08L10.26 3.64L9.86 3.64L9.86 3.64Q9.54 3.64 9.38 3.83L9.38 3.83L9.38 3.83Q9.30 3.93 8.83 4.94L8.83 4.94L8.83 4.94Q8.62 5.46 8.55 5.57L8.55 5.57L5.42 12.63L5.18 12.63L1.93 4.73L1.93 4.73Q1.61 3.93 1.47 3.79L1.47 3.79L1.47 3.79Q1.31 3.63 0.87 3.64L0.87 3.64ZM18.04 3.64L18.03 3.08L20.20 3.08L25.94 10.48L25.94 4.14L25.94 4.14Q25.94 3.81 25.78 3.72L25.78 3.72L25.78 3.72Q25.63 3.64 25.17 3.64L25.17 3.64L24.68 3.64L24.71 3.08L27.69 3.08L27.69 3.64L27.36 3.64L27.36 3.64Q26.90 3.64 26.75 3.75L26.75 3.75L26.75 3.75Q26.60 3.86 26.60 4.25L26.60 4.25L26.60 12.32L26.60 12.47L26.60 12.47Q26.60 12.52 26.58 12.57L26.58 12.57L26.58 12.57Q26.57 12.61 26.54 12.64L26.54 12.64L26.54 12.64Q26.52 12.65 26.47 12.65L26.47 12.65L26.28 12.65L26.22 12.65L26.19 12.65L26.16 12.64L26.16 12.64Q26.13 12.64 26.12 12.63L26.12 12.63L26.12 12.63Q26.11 12.61 26.11 12.60L26.11 12.60L26.11 12.60Q26.11 12.58 26.09 12.57L26.09 12.57L26.09 12.57Q26.07 12.54 26.04 12.50L26.04 12.50L26.04 12.50Q26.02 12.48 26.00 12.45L26.00 12.45L26.00 12.45Q25.98 12.41 25.97 12.40L25.97 12.40L19.87 4.56L19.93 11.22L19.93 11.22Q19.93 11.67 20.10 11.77L20.10 11.77L20.10 11.77Q20.25 11.87 20.97 11.87L20.97 11.87L21.21 11.87L21.21 12.41L18.27 12.41L18.27 11.87L18.69 11.87L18.69 11.87Q19.07 11.87 19.17 11.76L19.17 11.76L19.17 11.76Q19.27 11.66 19.28 11.25L19.28 11.25L19.28 3.80L19.13 3.64L18.04 3.64ZM35.81 8.02L35.81 8.02L35.81 8.02Q35.81 6.86 36.28 5.83L36.28 5.83L36.28 5.83Q36.74 4.85 37.50 4.27L37.50 4.27L37.50 4.27Q38.24 3.69 39.14 3.37L39.14 3.37L39.14 3.37Q40.03 3.05 40.87 3.05L40.87 3.05L40.87 3.05Q41.74 3.05 42.41 3.16L42.41 3.16L42.41 3.16Q43.04 3.26 43.33 3.37L43.33 3.37L43.33 3.37Q43.64 3.48 43.67 3.48L43.67 3.48L43.67 3.48Q43.85 3.48 43.87 3.41L43.87 3.41L43.87 3.41Q43.89 3.33 43.89 3.09L43.89 3.09L43.89 2.97L44.43 2.97L44.43 2.97Q44.47 4.30 44.60 5.64L44.60 5.64L44.09 5.65L44.09 5.65Q44.06 5.40 44.05 5.26L44.05 5.26L44.05 5.26Q44.05 5.20 44.04 5.13L44.04 5.13L44.04 5.13Q44.04 5.07 44.03 5.02L44.03 5.02L44.03 5.02Q44.02 4.98 44.02 4.95L44.02 4.95L44.02 4.95Q44.00 4.84 44.00 4.74L44.00 4.74L44.00 4.74Q44.00 4.68 43.96 4.59L43.96 4.59L43.96 4.59Q43.96 4.57 43.92 4.55L43.92 4.55L43.92 4.55Q43.89 4.52 43.89 4.50L43.89 4.50L43.89 4.50Q43.87 4.44 43.80 4.41L43.80 4.41L43.80 4.41Q43.76 4.38 43.73 4.37L43.73 4.37L43.73 4.37Q43.70 4.36 43.67 4.35L43.67 4.35L43.67 4.35Q43.66 4.35 43.64 4.33L43.64 4.33L43.64 4.33Q43.61 4.31 43.57 4.29L43.57 4.29L43.57 4.29Q43.53 4.27 43.49 4.25L43.49 4.25L43.49 4.25Q43.26 4.16 43.24 4.14L43.24 4.14L43.24 4.14Q42.89 3.96 42.25 3.83L42.25 3.83L42.25 3.83Q41.58 3.71 40.91 3.71L40.91 3.71L40.91 3.71Q39.19 3.71 38.10 4.84L38.10 4.84L38.10 4.84Q36.99 5.99 37.00 7.62L37.00 7.62L37.00 7.62Q37.00 9.35 38.21 10.69L38.21 10.69L38.21 10.69Q39.42 12.02 41.23 12.02L41.23 12.02L41.23 12.02Q42.24 12.02 43.18 11.49L43.18 11.49L43.18 11.49Q44.13 10.94 44.16 10.58L44.16 10.58L44.20 9.41L44.69 9.41L44.61 11.45L44.61 11.45Q44.54 11.49 44.41 11.57L44.41 11.57L44.41 11.57Q44.36 11.60 43.89 11.85L43.89 11.85L43.89 11.85Q43.52 12.05 43.07 12.23L43.07 12.23L43.07 12.23Q42.71 12.39 42.06 12.51L42.06 12.51L42.06 12.51Q41.45 12.63 40.89 12.64L40.89 12.64L40.89 12.64Q38.51 12.64 37.15 11.39L37.15 11.39L37.15 11.39Q35.81 10.14 35.81 8.02Z"></path></g></svg>