<svg data-v-fde0c5aa="" xmlns="http://www.w3.org/2000/svg" viewBox="0 0 300 300" class="iconLeft"><!----><defs data-v-fde0c5aa=""><!----></defs><rect data-v-fde0c5aa="" fill="#FFFFFF" x="0" y="0" width="300px" height="300px" class="logo-background-square"></rect><defs data-v-fde0c5aa=""><!----></defs><g data-v-fde0c5aa="" id="a5a847e1-5396-4d5c-bc24-7d8465ec3184" fill="#0A1931"><path d=""></path></g><defs data-v-fde0c5aa=""><!----></defs><g data-v-fde0c5aa="" id="f0b7f5fe-bee4-4c8f-ac5e-db6d787bed81" stroke="none" fill="#185ADB"><path d="M35.189 70.812l1.978-1.993c3.06-3.06 6.38-4.611 9.924-4.611 5.01 0 8.237 3.133 8.63 3.517L58 70.188V30H23v51h21.753l-7.579-7.975-1.985-2.213zm17.61-17.963a4.328 4.328 0 1 1-8.657 0 4.328 4.328 0 0 1 8.656 0zM41.465 35.27a4.328 4.328 0 1 1 0 8.655 4.328 4.328 0 0 1 0-8.656zm-12.471 17.58a4.328 4.328 0 1 1 8.656.001 4.328 4.328 0 0 1-8.656 0z"></path><path d="M39.205 71.05L62.575 95H81V74.2s1-20.235-19-20.235V71.36l-3.114 3.165L54 69.845s-6.985-6.604-14.795 1.206zM40.802 21.66c4.887 0 9.461 1.366 13.36 3.737l2.205-4.19a30.337 30.337 0 0 0-15.565-4.28 30.353 30.353 0 0 0-17.637 5.633l2.46 4.055a25.653 25.653 0 0 1 15.177-4.955z"></path><path d="M40.802 11.483a35.74 35.74 0 0 1 18.1 4.905l2.204-4.19A40.442 40.442 0 0 0 40.802 6.75a40.47 40.47 0 0 0-22.926 7.091l2.46 4.055a35.763 35.763 0 0 1 20.466-6.413z"></path></g><!----></svg>